<svg t="1648271900926" class="icon" viewBox="0 0 1024 1024" version="1.1" xmlns="http://www.w3.org/2000/svg" p-id="63661" width="200" height="200"><path d="M655.3088 789.0432c44.9536-41.6768 84.3776-88.0128 113.2544-135.8336 70.6048-105.8816 123.5456-258.2528-111.7696-380.1088 0 0-282.368-219.904-403.9168 15.36s-158.8224 578.4576-31.3856 656.896c75.1616 46.2336 210.3296 5.2224 333.1072-76.8512" fill="#F7934F" p-id="63662"></path><path d="M717.3632 309.3504c1.792 91.648-9.3184 295.3728-132.352 411.5968-162.2016 153.1904-315.4432 257.3312-424.448 138.5984 12.9536 38.7072 32.9728 68.6592 60.928 85.8624 75.1616 46.2336 210.3296 5.2224 333.1072-76.8512l100.7104-79.4624c44.9536-41.6768 84.3776-88.0128 113.2544-135.8336 63.744-95.6928 113.0496-229.1712-51.2-343.9104z" fill="#E8823D" p-id="63663"></path><path d="M299.1616 980.224c-31.744 0-60.9792-6.5536-85.76-21.8112-64.6144-39.7824-94.8224-140.544-84.992-283.7504 8.8576-129.1776 50.2784-276.224 110.7456-393.2672 31.9488-61.7984 77.4656-99.584 135.3216-112.2816 129.4336-28.416 275.0464 79.104 290.56 90.9312 96.6656 50.3296 154.7264 111.104 172.6976 180.6336 17.0496 66.0992-1.3312 138.2912-56.2176 220.7232-28.416 47.0016-68.4544 95.0272-115.8144 138.9056-6.1952 5.7856-15.9232 5.376-21.7088-0.8192-5.7856-6.1952-5.376-15.9232 0.8192-21.7088 45.3632-42.0352 83.5584-87.8592 110.5408-132.5056 0.1024-0.2048 0.256-0.4096 0.3584-0.5632 49.92-74.8544 66.9696-139.0592 52.224-196.3008-15.6672-61.0304-68.9152-115.456-158.208-161.6896-0.8192-0.4096-1.6384-0.9216-2.3552-1.536-1.4336-1.1264-146.3808-112.4352-266.3424-86.0672-48.4864 10.6496-86.9888 43.1104-114.5344 96.3584-116.3776 225.28-156.3136 563.3024-36.9664 636.7744 63.8976 39.3216 188.16 9.2672 316.5184-76.544 7.0656-4.7104 16.5888-2.816 21.2992 4.2496 4.7104 7.0656 2.816 16.5888-4.2496 21.2992-79.7696 53.3504-180.3776 98.9696-263.936 98.9696z" fill="#000F04" p-id="63664"></path><path d="M704.512 143.2576s-109.824-89.2416-130.4064-83.3536c-20.5824 5.888-64.7168 89.2416-50.0224 163.7376s51.968 108.8512 79.4112 118.6304 57.856 8.8064 97.0752 0 96.3072-3.4816 106.496 11.8784c10.1888 15.3088 62.1568-50.0736 7.2192-118.7328s-109.7728-92.16-109.7728-92.16z" fill="#BFE5BD" p-id="63665"></path><path d="M603.4944 342.272c27.4432 9.7792 57.856 8.8064 97.0752 0s96.3072-3.4816 106.496 11.8784c7.5776 11.4176 38.4-22.0672 30.8224-68.352-26.2656-20.7872-157.7472 0-157.7472 0s-49.3056-5.1712-75.776-33.6384c-32.8192-14.6944-53.0432-167.8848-53.0432-168.0896-19.0464 31.2832-37.4272 87.552-27.1872 139.5712 14.6432 74.496 51.9168 108.8512 79.36 118.6304z" fill="#A2DD9E" p-id="63666"></path><path d="M811.2128 371.7632c-6.8608 0-13.1072-3.328-16.9472-9.1136-6.4512-6.7584-52.6336-13.824-90.3168-5.376-44.1856 9.9328-76.7488 9.7792-105.5744-0.512-16.0768-5.7344-69.9904-32.0512-89.344-130.0992-15.2064-77.056 28.0576-172.0832 60.8256-181.4528 10.1376-2.8672 25.1392-2.048 86.1184 41.7792 26.368 18.944 50.3808 38.144 56.6784 43.1616 11.008 5.1712 62.3616 31.5904 113.664 95.744 41.5232 51.9168 26.1632 99.6864 20.48 113.0496-6.3488 14.9504-18.4832 31.3856-33.5872 32.768-0.6656 0-1.3312 0.0512-1.9968 0.0512z m-68.5056-49.0496c26.9824 0 54.4768 4.5056 69.4272 15.1552 3.3792-4.2496 7.8848-12.0832 10.1888-23.296 3.328-16.1792 2.56-41.3696-20.0192-69.5296-51.5072-64.4096-103.3728-87.4496-103.8848-87.6544-1.28-0.5632-2.5088-1.28-3.584-2.2016-45.1584-36.6592-101.8368-76.5952-117.3504-79.9744-13.4656 8.9088-51.1488 80.3328-38.2464 145.4592 12.9024 65.28 44.3392 98.1504 69.5296 107.1616 23.3472 8.3456 49.8176 8.192 88.5248-0.512 12.9536-2.9696 29.0816-4.608 45.4144-4.608z" fill="#000F04" p-id="63667"></path><path d="M737.8432 76.5952s-104.9088 31.3856-123.5456 108.8512-41.1648 136.2432-15.6672 154.88c25.4976 18.6368 83.3536-37.2224 124.5184-54.8864 41.1648-17.664 102.9632-48.0256 146.0736-41.1648 16.6912 3.9424 19.6096-36.3008-11.776-78.4384-31.3856-42.1888-69.8368-111.6672-119.6032-89.2416z" fill="#BFE5BD" p-id="63668"></path><path d="M869.2224 244.224c16.6912 3.9424 19.6096-36.3008-11.776-78.4384-2.816-3.7888-5.7344-7.8336-8.6528-11.9808-54.8864 4.352-168.3456 32.256-256.9216 178.6368 1.7408 3.072 3.8912 5.7344 6.7584 7.8336 25.4976 18.6368 83.3536-37.2224 124.5184-54.8864 41.1648-17.6128 102.912-48.0256 146.0736-41.1648z" fill="#A2DD9E" p-id="63669"></path><path d="M610.9696 359.5776c-7.68 0-14.848-2.048-21.4016-6.8608-29.0816-21.2992-17.2032-66.56-0.8192-129.1776 3.4816-13.312 7.1168-27.136 10.5984-41.6768 19.6608-81.8176 121.2416-115.9168 133.0688-119.6544 54.016-23.4496 94.5152 34.048 124.16 76.1344 4.5056 6.4 8.9088 12.6464 13.1584 18.3296 25.2416 33.8944 34.2016 72.704 21.3504 92.2624-5.5808 8.4992-15.0016 12.4416-24.7296 10.4448-33.792-5.0688-84.9408 17.3056-122.368 33.6896-5.1712 2.2528-10.1376 4.4544-14.848 6.4512-12.6976 5.4272-28.2624 15.616-43.3152 25.4464-26.9824 17.664-52.8896 34.6112-74.8544 34.6112z m131.2768-268.288c-1.3312 0.4096-96.7168 30.0544-112.9984 97.6896-3.584 14.848-7.2192 28.8256-10.752 42.2912-11.3152 43.1104-22.9888 87.7056-10.8032 96.6144 8.2944 6.0416 42.8032-16.4864 61.3888-28.6208 16.128-10.5472 32.8704-21.4528 48.0256-27.9552 4.608-1.9968 9.5232-4.1472 14.6432-6.3488 41.472-18.176 92.6208-40.6528 134.4-36.5568 0.5632-8.5504-2.6624-28.7744-20.992-53.4016-4.4032-5.888-8.96-12.3392-13.6192-18.9952-31.744-45.056-58.3168-78.4384-87.3472-65.3824-0.6656 0.256-1.3312 0.4608-1.9456 0.6656z m-4.4032-14.6944zM239.1552 644.5568c-1.0752 0-2.1504-0.1024-3.2256-0.3584a15.32928 15.32928 0 0 1-11.776-18.2272c15.0016-69.9392 32.5632-132.6592 52.224-186.368a15.35488 15.35488 0 0 1 19.712-9.1648c7.9872 2.9184 12.0832 11.7248 9.1648 19.712-19.1488 52.3776-36.3008 113.7152-50.9952 182.272a15.59552 15.59552 0 0 1-15.104 12.1344zM312.7296 406.3232a15.4112 15.4112 0 0 1-13.9776-21.8112c6.912-15.0016 11.2128-22.3744 11.4176-22.6816a15.31392 15.31392 0 0 1 21.0432-5.4272c7.3216 4.3008 9.728 13.7216 5.4784 20.992-0.0512 0.0512-3.84 6.5536-10.0352 19.968a15.232 15.232 0 0 1-13.9264 8.96z" fill="#000F04" p-id="63670"></path></svg>